Coordinates
version=1
nRows=9
nColumns=24
inDegrees=yes

Units are S.I. units (second, meters, Newtons, ...)
Angles are in degrees.

endheader
time	pelvis_tilt	pelvis_list	pelvis_rotation	pelvis_tx	pelvis_ty	pelvis_tz	hip_flexion_r	hip_adduction_r	hip_rotation_r	knee_angle_r	ankle_angle_r	subtalar_angle_r	mtp_angle_r	hip_flexion_l	hip_adduction_l	hip_rotation_l	knee_angle_l	ankle_angle_l	subtalar_angle_l	mtp_angle_l	lumbar_extension	lumbar_bending	lumbar_rotation
      0.77100000	     -1.03800986	     -4.33225783	      8.29337965	     -0.43959202	      0.90527551	      0.31123752	     13.55258551	      9.31282572	     -8.03651411	    -21.87494451	     12.24242219	     -0.11482590	      5.58971984	     16.79814883	     -7.86494407	     -0.49938345	    -72.82938919	     -0.83294872	     -8.97635033	      0.56631991	     -4.92333463	      5.24950249	     -0.41664460
      0.77516667	     -1.10539196	     -4.17133297	      8.15969185	     -0.43428181	      0.90639628	      0.31159107	     12.96821245	      9.24796956	     -7.86113554	    -21.36638635	     12.28127024	      0.00727799	      5.58795108	     17.48644181	     -7.54569484	     -0.65841985	    -72.45702979	     -0.36140518	     -9.05835615	      0.55298923	     -4.87477607	      5.05156762	     -0.31147541
      0.77933333	     -1.13697350	     -3.99608043	      7.98613031	     -0.42901569	      0.90754013	      0.31199278	     12.34911705	      9.17872236	     -7.62334068	    -20.86680191	     12.30349496	      0.13882918	      5.58439491	     18.10477813	     -7.22849911	     -0.85898192	    -72.01618053	      0.15789188	     -9.04606425	      0.52499191	     -4.93527567	      4.84424336	     -0.01520705
      0.78350000	     -1.14780122	     -3.83587723	      7.82166525	     -0.42369528	      0.90869538	      0.31240924	     11.68016049	      9.12740634	     -7.41059647	    -20.30577227	     12.35491079	      0.26112274	      5.58042534	     18.68581428	     -6.94890639	     -1.06972680	    -71.50241070	      0.58258917	     -9.00000387	      0.47923727	     -4.96958891	      4.64319856	      0.37583855
      0.78766667	     -1.16873325	     -3.67193395	      7.63809815	     -0.41840328	      0.90980535	      0.31282290	     11.02950850	      9.06319249	     -7.20057409	    -19.75589347	     12.36454028	      0.40167434	      5.57809887	     19.25433196	     -6.66212501	     -1.29298707	    -70.91874804	      1.01269739	     -8.98140417	      0.43611173	     -5.00171090	      4.45140392	      0.66439513
      0.79183333	     -1.17468304	     -3.50361525	      7.44862775	     -0.41310960	      0.91090688	      0.31324783	     10.35705610	      8.99194878	     -7.00067891	    -19.19392418	     12.37959723	      0.55987375	      5.57844673	     19.78506665	     -6.38011318	     -1.52920884	    -70.26567850	      1.42468698	     -8.94552077	      0.40543871	     -5.05348961	      4.24638919	      0.92027922
      0.79600000	     -1.16752192	     -3.33929660	      7.24737460	     -0.40782210	      0.91199064	      0.31368052	      9.66636784	      8.92276344	     -6.80384261	    -18.61925901	     12.38181693	      0.73067426	      5.58040300	     20.28101213	     -6.11280301	     -1.78004870	    -69.54805103	      1.81804430	     -8.89916293	      0.37957918	     -5.11865644	      4.05415363	      1.19591807
      0.80016667	     -1.15474173	     -3.17437391	      7.03133556	     -0.40255664	      0.91304412	      0.31412156	      8.97125109	      8.84784031	     -6.60728844	    -18.04221826	     12.36495066	      0.91046373	      5.58398377	     20.74935824	     -5.84994908	     -2.04185651	    -68.76348709	      2.19556840	     -8.84802985	      0.36032523	     -5.19764739	      3.86921543	      1.45643008
      0.80433333	     -1.12207813	     -3.02136439	      6.82030660	     -0.39727179	      0.91407655	      0.31456789	      8.23954905	      8.78583860	     -6.42383776	    -17.42959687	     12.35940515	      1.09235594	      5.59023216	     21.18352793	     -5.61693754	     -2.31666957	    -67.92649752	      2.55062869	     -8.78053843	      0.34189929	     -5.28703040	      3.68185430	      1.74521869
